<svg width="707" height="125" viewBox="0 0 707 125" fill="none" xmlns="http://www.w3.org/2000/svg">
<path d="M322.729 65.8072L293.908 15.8898C288.172 5.95546 277.889 0.0129186 266.417 0.0129186C254.958 0.0129186 244.701 5.92962 238.952 15.8382L195.029 91.9026H137.929C134.221 91.9026 130.901 89.9907 129.054 86.7869C127.194 83.5831 127.194 79.7592 129.054 76.5425L157.875 26.6252C159.723 23.4214 163.043 21.4965 166.75 21.4965C170.458 21.4965 173.765 23.4084 175.625 26.6252L177.344 29.5964C178.041 30.7979 179.32 31.5342 180.702 31.5342C182.085 31.5342 183.377 30.7849 184.061 29.5835L191.696 16.1999C192.497 14.7918 192.342 13.0348 191.309 11.7946C185.056 4.30188 176.065 0 166.66 0C166.285 0 165.911 0 165.523 0.0258371C154.568 0.426313 144.75 6.35593 139.247 15.8769L113.758 60.0326L88.5285 16.5616C82.6506 6.36885 71.9282 0.0129186 60.5727 0.0129186C60.1981 0.0129186 59.8235 0.0129186 59.4359 0.0387557C48.481 0.439231 38.6629 6.36885 33.1596 15.8898L4.35117 65.8072C-3.55499 79.4879 -0.493288 95.9203 11.9602 106.681C16.9855 111.035 23.6386 113.425 30.6921 113.425H84.4592C85.8415 113.425 87.1204 112.689 87.818 111.487L95.75 97.7418C96.4476 96.5404 96.4476 95.0677 95.75 93.8663C95.0524 92.6648 93.7734 91.9285 92.3912 91.9285H31.8419C28.1342 91.9285 24.8142 90.0165 22.9668 86.8127C21.1065 83.6089 21.1065 79.785 22.9668 76.5683L51.7881 26.651C53.6355 23.4472 56.9556 21.5223 60.6632 21.5223C64.3708 21.5223 67.678 23.4343 69.5382 26.651L110.697 98.0261C110.813 98.2327 110.942 98.4136 111.097 98.5945C112.932 101.514 115.244 104.253 118.06 106.694C123.086 111.048 129.739 113.438 136.792 113.438H182.627L179.307 119.187C178.61 120.388 178.61 121.861 179.307 123.062C180.005 124.264 181.284 125 182.666 125H198.543C199.925 125 201.204 124.264 201.902 123.062L207.043 114.148L208.619 111.629C208.619 111.629 208.671 111.552 208.684 111.513L257.542 26.6639C259.389 23.4601 262.709 21.5352 266.417 21.5352C270.125 21.5352 273.445 23.4472 275.292 26.6639L304.113 76.5812C305.961 79.785 305.974 83.6218 304.113 86.8257C302.266 90.0295 298.946 91.9543 295.238 91.9543H237.88C236.498 91.9543 235.219 92.6907 234.521 93.8921L226.576 107.637C225.879 108.839 225.879 110.312 226.576 111.513C227.274 112.714 228.553 113.451 229.935 113.451H294.437C306.71 113.451 317.781 106.953 323.31 96.5017C328.439 86.8127 328.22 75.354 322.716 65.8201L322.729 65.8072Z" fill="white"/>
<path d="M366.25 42.4282V39.9094C367.365 39.9094 368.22 39.6109 368.815 39.0138C369.41 38.4168 369.912 37.6145 370.32 36.6069C370.729 35.5621 371.175 34.4053 371.659 33.1366L382.922 2.18298H385.152L397.364 33.5844C397.661 34.2934 397.996 35.2636 398.367 36.495C398.739 37.6891 398.906 38.7153 398.869 39.5736C399.501 39.4989 400.115 39.4616 400.709 39.4616C401.341 39.4243 401.936 39.387 402.494 39.3497V42.4282H388.944V39.9654C390.245 39.9281 391.1 39.6482 391.509 39.1258C391.955 38.566 392.122 37.8943 392.011 37.1107C391.937 36.3271 391.751 35.5434 391.453 34.7598L389.781 30.2259L376.119 30.5618L374.502 35.4315C374.279 36.1778 374.038 36.8868 373.778 37.5585C373.517 38.2302 373.257 38.8832 372.997 39.5176C373.666 39.443 374.372 39.4056 375.116 39.4056C375.896 39.3683 376.584 39.331 377.179 39.2937V42.4282H366.25ZM377.123 27.5392H388.833L385.32 18.0796C384.874 16.8481 384.446 15.6354 384.037 14.4413C383.628 13.2098 383.257 12.0344 382.922 10.9149H382.866C382.569 11.8478 382.234 12.874 381.863 13.9935C381.491 15.113 381.063 16.3257 380.58 17.6318L377.123 27.5392Z" fill="white"/>
<path d="M416.751 57.5972C413.48 57.5972 410.841 57.224 408.833 56.4777C406.863 55.7687 405.432 54.8358 404.54 53.679C403.685 52.5595 403.257 51.3654 403.257 50.0967C403.257 49.0891 403.48 48.1562 403.926 47.298C404.41 46.4397 405.042 45.6747 405.822 45.003C406.603 44.3687 407.476 43.8649 408.443 43.4917C407.142 43.0813 406.157 42.5029 405.488 41.7565C404.819 40.9729 404.484 40.0214 404.484 38.9019C404.484 37.7078 404.949 36.5323 405.878 35.3755C406.845 34.2187 408.22 33.4351 410.004 33.0246C408.331 32.2783 406.993 31.1961 405.99 29.7781C404.986 28.3601 404.465 26.6809 404.428 24.7405C404.391 22.5015 404.949 20.5424 406.101 18.8632C407.291 17.184 408.796 15.8779 410.618 14.945C412.476 14.0121 414.409 13.5457 416.417 13.5457C417.569 13.5457 418.758 13.7136 419.985 14.0495C421.212 14.348 422.327 14.8331 423.331 15.5048C423.74 14.4226 424.279 13.4337 424.948 12.5382C425.617 11.6426 426.397 10.9336 427.29 10.4111C428.219 9.88873 429.185 9.62751 430.189 9.62751C431.267 9.62751 432.085 9.90738 432.643 10.4671C433.2 11.0269 433.479 11.7732 433.479 12.7061C433.479 13.0046 433.386 13.3778 433.2 13.8256C433.051 14.236 432.773 14.5905 432.364 14.8891C431.955 15.1876 431.397 15.3369 430.691 15.3369C430.096 15.3369 429.557 15.1503 429.074 14.7771C428.628 14.3666 428.349 13.8815 428.238 13.3218C427.457 13.4711 426.806 13.9375 426.286 14.7211C425.803 15.4675 425.487 16.2324 425.338 17.0161C426.305 17.8743 427.048 18.9005 427.568 20.0946C428.126 21.2514 428.405 22.5015 428.405 23.8449C428.405 25.9719 427.829 27.8564 426.676 29.4983C425.561 31.1402 424.093 32.4276 422.271 33.3605C420.45 34.2934 418.48 34.7598 416.361 34.7598C415.729 34.7598 415.134 34.7225 414.576 34.6479C414.019 34.5359 413.406 34.4799 412.736 34.4799C411.547 34.4799 410.562 34.7598 409.781 35.3195C409.038 35.8793 408.759 36.551 408.945 37.3346C409.131 38.1556 409.911 38.6966 411.287 38.9578C412.662 39.2191 414.651 39.4056 417.253 39.5176C420.115 39.6295 422.569 39.984 424.613 40.5811C426.695 41.1408 428.293 42.0178 429.409 43.2119C430.561 44.406 431.137 46.0292 431.137 48.0816C431.137 49.6116 430.71 50.9736 429.855 52.1677C429.037 53.3618 427.922 54.3507 426.509 55.1343C425.134 55.9553 423.591 56.571 421.881 56.9815C420.171 57.3919 418.461 57.5972 416.751 57.5972ZM417.253 54.8544C420.264 54.8544 422.587 54.2947 424.223 53.1752C425.896 52.0557 426.732 50.787 426.732 49.369C426.732 48.1749 426.323 47.242 425.505 46.5703C424.688 45.9359 423.535 45.4695 422.048 45.171C420.599 44.9097 418.889 44.7605 416.918 44.7232C415.952 44.6485 414.967 44.5926 413.963 44.5552C412.959 44.5179 412.03 44.4246 411.175 44.2754C410.32 44.8724 409.651 45.6001 409.168 46.4584C408.722 47.3166 408.48 48.2122 408.443 49.1451C408.443 50.8616 409.242 52.2423 410.841 53.2872C412.439 54.332 414.576 54.8544 417.253 54.8544ZM416.528 32.129C417.792 32.129 418.833 31.8118 419.651 31.1775C420.506 30.5058 421.138 29.6289 421.546 28.5467C421.992 27.4272 422.216 26.2145 422.216 24.9084C422.216 23.3784 421.992 21.9418 421.546 20.5984C421.1 19.255 420.45 18.1729 419.595 17.3519C418.74 16.531 417.643 16.1205 416.305 16.1205C414.484 16.1205 413.071 16.8481 412.067 18.3035C411.064 19.7588 410.562 21.5126 410.562 23.565C410.562 25.2069 410.785 26.6809 411.231 27.987C411.714 29.2557 412.402 30.2632 413.294 31.0096C414.186 31.7559 415.264 32.129 416.528 32.129Z" fill="white"/>
<path d="M447.188 43.3238C444.585 43.3238 442.244 42.7268 440.162 41.5327C438.117 40.3012 436.5 38.5847 435.311 36.383C434.121 34.1441 433.526 31.5133 433.526 28.4907C433.526 25.8786 434.103 23.4344 435.255 21.1581C436.445 18.8819 438.099 17.0534 440.218 15.6727C442.336 14.2547 444.79 13.5457 447.578 13.5457C449.139 13.5457 450.607 13.7882 451.983 14.2733C453.395 14.7585 454.641 15.5234 455.719 16.5683C456.834 17.5758 457.707 18.9005 458.339 20.5424C458.971 22.147 459.287 24.1061 459.287 26.4197L440.106 26.7555C440.106 29.293 440.385 31.5506 440.942 33.5284C441.537 35.5061 442.485 37.0361 443.786 38.1182C445.087 39.2004 446.779 39.7415 448.86 39.7415C449.864 39.7415 450.923 39.5736 452.039 39.2377C453.191 38.8646 454.269 38.3421 455.273 37.6704C456.313 36.9988 457.187 36.1965 457.893 35.2636L459.622 36.7749C458.507 38.4541 457.224 39.7788 455.774 40.749C454.325 41.6819 452.838 42.3349 451.314 42.7081C449.827 43.1186 448.451 43.3238 447.188 43.3238ZM440.329 23.8449H453.21C453.21 22.4269 453.005 21.1581 452.596 20.0387C452.224 18.8819 451.63 17.9676 450.812 17.2959C449.994 16.6243 448.953 16.2884 447.689 16.2884C445.719 16.2884 444.102 16.9228 442.838 18.1915C441.574 19.423 440.738 21.3074 440.329 23.8449Z" fill="white"/>
<path d="M463.414 42.4282V40.0773C464.53 40.0773 465.31 39.8161 465.756 39.2937C466.202 38.7713 466.463 38.0436 466.537 37.1107C466.648 36.1778 466.704 35.0956 466.704 33.8642L466.76 22.2216C466.76 21.6246 466.76 20.9902 466.76 20.3185C466.797 19.6095 466.871 18.9192 466.983 18.2475C466.314 18.2848 465.626 18.3221 464.92 18.3594C464.251 18.3594 463.619 18.3781 463.024 18.4154V15.4488C464.697 15.4488 465.998 15.3742 466.927 15.2249C467.894 15.0383 468.619 14.8331 469.102 14.6092C469.622 14.3853 470.013 14.1427 470.273 13.8815H472.28C472.317 14.2174 472.336 14.5346 472.336 14.8331C472.373 15.1316 472.392 15.4488 472.392 15.7846C472.429 16.1205 472.466 16.5496 472.503 17.072C473.321 16.4004 474.213 15.8033 475.18 15.2809C476.146 14.7585 477.15 14.348 478.191 14.0495C479.269 13.7136 480.291 13.5457 481.257 13.5457C484.566 13.5457 486.945 14.5532 488.395 16.5683C489.882 18.5833 490.625 21.7365 490.625 26.0279V35.4875C490.625 36.1592 490.606 36.8495 490.569 37.5585C490.532 38.2302 490.476 38.9205 490.402 39.6295C490.997 39.5922 491.592 39.5736 492.186 39.5736C492.818 39.5362 493.394 39.4989 493.915 39.4616V42.4282H481.48V40.0773C482.596 40.0773 483.376 39.8161 483.822 39.2937C484.268 38.7713 484.529 38.0436 484.603 37.1107C484.715 36.1778 484.77 35.0956 484.77 33.8642V26.0279C484.733 23.0799 484.25 20.8596 483.321 19.367C482.428 17.8743 480.979 17.1467 478.971 17.184C477.782 17.184 476.611 17.4825 475.458 18.0796C474.306 18.6766 473.34 19.4043 472.559 20.2626C472.559 20.6357 472.559 21.0462 472.559 21.494C472.559 21.9045 472.559 22.3336 472.559 22.7814V35.4875C472.559 36.1592 472.54 36.8495 472.503 37.5585C472.466 38.2302 472.41 38.9205 472.336 39.6295C472.931 39.5922 473.525 39.5736 474.12 39.5736C474.752 39.5362 475.328 39.4989 475.849 39.4616V42.4282H463.414Z" fill="white"/>
<path d="M507.485 43.3238C506.556 43.3238 505.608 43.1932 504.642 42.932C503.712 42.7081 502.857 42.2417 502.077 41.5327C501.296 40.7863 500.683 39.7228 500.237 38.3421C499.79 36.9614 499.567 35.133 499.567 32.8567L499.679 17.5758H495.553V14.4413C496.556 14.404 497.579 14.0308 498.62 13.3218C499.66 12.6128 500.571 11.6612 501.352 10.4671C502.132 9.27301 502.671 7.98561 502.969 6.60492H505.589V14.4413H514.176V17.3519L505.589 17.4639L505.478 32.4089C505.478 33.8269 505.589 35.077 505.813 36.1592C506.073 37.204 506.482 38.025 507.039 38.622C507.634 39.1817 508.433 39.4616 509.437 39.4616C510.292 39.4616 511.165 39.2004 512.058 38.678C512.987 38.1556 513.86 37.2973 514.678 36.1032L516.574 37.7824C515.682 39.0885 514.79 40.1146 513.898 40.861C513.005 41.6073 512.151 42.1484 511.333 42.4842C510.515 42.8574 509.771 43.0813 509.102 43.1559C508.433 43.2678 507.894 43.3238 507.485 43.3238Z" fill="white"/>
<path d="M519.369 57.5972L515.744 55.3022L547.862 0L551.932 2.5748L519.369 57.5972Z" fill="white"/>
<path d="M584.708 15.7287C584.299 12.3702 583.147 9.79544 581.251 8.00427C579.355 6.17579 576.883 5.24289 573.835 5.20557C571.902 5.20557 570.117 5.63471 568.482 6.49297C566.846 7.35124 565.434 8.56401 564.244 10.1313C563.055 11.6612 562.125 13.4897 561.456 15.6167C560.824 17.7064 560.508 20.0013 560.508 22.5015C560.508 25.8973 561.103 28.9199 562.293 31.5693C563.482 34.1814 565.118 36.2151 567.199 37.6704C569.318 39.1258 571.716 39.8534 574.392 39.8534C576.771 39.8534 579.113 39.2937 581.418 38.1742C583.76 37.0174 585.693 35.3942 587.217 33.3045L589.057 34.8718C587.384 37.1853 585.6 38.9578 583.704 40.1893C581.808 41.4207 579.913 42.2417 578.017 42.6521C576.158 43.0999 574.467 43.3238 572.943 43.3238C570.155 43.3238 567.59 42.82 565.248 41.8125C562.906 40.805 560.88 39.4056 559.17 37.6145C557.497 35.786 556.196 33.6776 555.267 31.2894C554.375 28.8639 553.929 26.2518 553.929 23.4531C553.929 20.841 554.337 18.2848 555.155 15.7846C555.973 13.2845 557.181 11.0269 558.78 9.0118C560.378 6.95942 562.385 5.33618 564.802 4.14207C567.255 2.94796 570.099 2.3509 573.333 2.3509C575.229 2.3509 577.069 2.61212 578.853 3.13454C580.675 3.65696 582.422 4.45926 584.094 5.54142L583.816 2.74272H587.273V15.7287H584.708Z" fill="white"/>
<path d="M591.528 40.0773C592.643 40.0773 593.424 39.8161 593.87 39.2937C594.316 38.7713 594.576 38.0436 594.65 37.1107C594.762 36.1778 594.818 35.0956 594.818 33.8642V8.56401C594.818 7.92964 594.818 7.29527 594.818 6.66089C594.855 5.98921 594.911 5.28021 594.985 4.53389C594.353 4.5712 593.684 4.60852 592.978 4.64584C592.271 4.64584 591.639 4.66449 591.082 4.70181V1.73519C592.755 1.73519 594.074 1.66056 595.041 1.5113C596.044 1.32471 596.806 1.11948 597.327 0.895581C597.884 0.671686 598.293 0.429132 598.554 0.16792H600.672V35.4875C600.672 36.1592 600.654 36.8495 600.617 37.5585C600.58 38.2302 600.524 38.9205 600.449 39.6295C601.044 39.5922 601.639 39.5736 602.234 39.5736C602.866 39.5362 603.442 39.4989 603.962 39.4616V42.4282H591.528V40.0773Z" fill="white"/>
<path d="M607.54 40.0773C608.655 40.0773 609.435 39.8161 609.881 39.2937C610.328 38.7713 610.588 38.0436 610.662 37.1107C610.774 36.1778 610.829 35.0956 610.829 33.8642V22.2776C610.829 21.6433 610.848 21.0089 610.885 20.3745C610.922 19.7028 610.978 18.9938 611.052 18.2475C610.42 18.2848 609.751 18.3221 609.045 18.3594C608.339 18.3594 607.688 18.3781 607.094 18.4154V15.4488C608.766 15.4488 610.086 15.3742 611.052 15.2249C612.056 15.0383 612.818 14.8331 613.339 14.6092C613.896 14.3853 614.305 14.1427 614.565 13.8815H616.684V35.4875C616.684 36.1592 616.666 36.8495 616.628 37.5585C616.591 38.2302 616.535 38.9205 616.461 39.6295C617.056 39.5922 617.651 39.5736 618.245 39.5736C618.877 39.5362 619.454 39.4989 619.974 39.4616V42.4282H607.54V40.0773ZM613.45 8.73193C612.484 8.73193 611.666 8.37743 610.997 7.66843C610.328 6.92211 609.993 6.02652 609.993 4.98168C609.993 3.93683 610.346 3.05991 611.052 2.3509C611.759 1.60458 612.558 1.23142 613.45 1.23142C614.417 1.23142 615.216 1.60458 615.848 2.3509C616.517 3.05991 616.851 3.93683 616.851 4.98168C616.851 6.02652 616.517 6.92211 615.848 7.66843C615.216 8.37743 614.417 8.73193 613.45 8.73193Z" fill="white"/>
<path d="M636.863 43.3238C634.261 43.3238 631.919 42.7268 629.838 41.5327C627.793 40.3012 626.176 38.5847 624.987 36.383C623.797 34.1441 623.202 31.5133 623.202 28.4907C623.202 25.8786 623.779 23.4344 624.931 21.1581C626.12 18.8819 627.775 17.0534 629.893 15.6727C632.012 14.2547 634.466 13.5457 637.254 13.5457C638.815 13.5457 640.283 13.7882 641.659 14.2733C643.071 14.7585 644.317 15.5234 645.395 16.5683C646.51 17.5758 647.383 18.9005 648.015 20.5424C648.647 22.147 648.963 24.1061 648.963 26.4197L629.782 26.7555C629.782 29.293 630.061 31.5506 630.618 33.5284C631.213 35.5061 632.161 37.0361 633.462 38.1182C634.763 39.2004 636.455 39.7415 638.536 39.7415C639.54 39.7415 640.599 39.5736 641.715 39.2377C642.867 38.8646 643.945 38.3421 644.949 37.6704C645.989 36.9988 646.863 36.1965 647.569 35.2636L649.298 36.7749C648.183 38.4541 646.9 39.7788 645.45 40.749C644.001 41.6819 642.514 42.3349 640.99 42.7081C639.503 43.1186 638.127 43.3238 636.863 43.3238ZM630.005 23.8449H642.885C642.885 22.4269 642.681 21.1581 642.272 20.0387C641.9 18.8819 641.306 17.9676 640.488 17.2959C639.67 16.6243 638.629 16.2884 637.365 16.2884C635.395 16.2884 633.778 16.9228 632.514 18.1915C631.25 19.423 630.414 21.3074 630.005 23.8449Z" fill="white"/>
<path d="M653.09 42.4282V40.0773C654.205 40.0773 654.986 39.8161 655.432 39.2937C655.878 38.7713 656.138 38.0436 656.213 37.1107C656.324 36.1778 656.38 35.0956 656.38 33.8642L656.436 22.2216C656.436 21.6246 656.436 20.9902 656.436 20.3185C656.473 19.6095 656.547 18.9192 656.659 18.2475C655.99 18.2848 655.302 18.3221 654.596 18.3594C653.927 18.3594 653.295 18.3781 652.7 18.4154V15.4488C654.373 15.4488 655.674 15.3742 656.603 15.2249C657.57 15.0383 658.295 14.8331 658.778 14.6092C659.298 14.3853 659.689 14.1427 659.949 13.8815H661.956C661.993 14.2174 662.012 14.5346 662.012 14.8331C662.049 15.1316 662.068 15.4488 662.068 15.7846C662.105 16.1205 662.142 16.5496 662.179 17.072C662.997 16.4004 663.889 15.8033 664.856 15.2809C665.822 14.7585 666.826 14.348 667.867 14.0495C668.945 13.7136 669.967 13.5457 670.933 13.5457C674.242 13.5457 676.621 14.5532 678.071 16.5683C679.557 18.5833 680.301 21.7365 680.301 26.0279V35.4875C680.301 36.1592 680.282 36.8495 680.245 37.5585C680.208 38.2302 680.152 38.9205 680.078 39.6295C680.673 39.5922 681.267 39.5736 681.862 39.5736C682.494 39.5362 683.07 39.4989 683.591 39.4616V42.4282H671.156V40.0773C672.272 40.0773 673.052 39.8161 673.498 39.2937C673.944 38.7713 674.205 38.0436 674.279 37.1107C674.39 36.1778 674.446 35.0956 674.446 33.8642V26.0279C674.409 23.0799 673.926 20.8596 672.996 19.367C672.104 17.8743 670.655 17.1467 668.647 17.184C667.458 17.184 666.287 17.4825 665.134 18.0796C663.982 18.6766 663.015 19.4043 662.235 20.2626C662.235 20.6357 662.235 21.0462 662.235 21.494C662.235 21.9045 662.235 22.3336 662.235 22.7814V35.4875C662.235 36.1592 662.216 36.8495 662.179 37.5585C662.142 38.2302 662.086 38.9205 662.012 39.6295C662.607 39.5922 663.201 39.5736 663.796 39.5736C664.428 39.5362 665.004 39.4989 665.525 39.4616V42.4282H653.09Z" fill="white"/>
<path d="M697.161 43.3238C696.232 43.3238 695.284 43.1932 694.317 42.932C693.388 42.7081 692.533 42.2417 691.753 41.5327C690.972 40.7863 690.359 39.7228 689.912 38.3421C689.466 36.9614 689.243 35.133 689.243 32.8567L689.355 17.5758H685.229V14.4413C686.232 14.404 687.255 14.0308 688.295 13.3218C689.336 12.6128 690.247 11.6612 691.028 10.4671C691.808 9.27301 692.347 7.98561 692.645 6.60492H695.265V14.4413H703.852V17.3519L695.265 17.4639L695.154 32.4089C695.154 33.8269 695.265 35.077 695.488 36.1592C695.749 37.204 696.158 38.025 696.715 38.622C697.31 39.1817 698.109 39.4616 699.113 39.4616C699.968 39.4616 700.841 39.2004 701.733 38.678C702.663 38.1556 703.536 37.2973 704.354 36.1032L706.25 37.7824C705.358 39.0885 704.466 40.1146 703.574 40.861C702.681 41.6073 701.826 42.1484 701.009 42.4842C700.191 42.8574 699.447 43.0813 698.778 43.1559C698.109 43.2678 697.57 43.3238 697.161 43.3238Z" fill="white"/>
<path d="M369.373 111.642C370.599 111.567 371.473 111.306 371.993 110.858C372.551 110.41 372.904 109.738 373.053 108.843C373.201 107.947 373.276 106.809 373.276 105.428V82.1433C373.276 81.3223 373.294 80.5387 373.331 79.7924C373.369 79.0088 373.406 78.3371 373.443 77.7773C372.811 77.8146 372.123 77.852 371.38 77.8893C370.636 77.9266 369.967 77.9639 369.373 78.0012V74.9227C371.566 74.8853 373.796 74.8667 376.064 74.8667C378.331 74.8294 380.636 74.8107 382.978 74.8107C386.472 74.8107 389.427 75.2399 391.844 76.0981C394.297 76.9191 396.174 78.1878 397.475 79.9043C398.814 81.5836 399.501 83.7106 399.538 86.2854C399.576 87.7407 399.315 89.252 398.758 90.8193C398.2 92.3492 397.252 93.7859 395.914 95.1292C394.576 96.4353 392.754 97.4988 390.45 98.3198C388.182 99.1407 385.32 99.5512 381.863 99.5512C381.491 99.5885 381.063 99.6072 380.58 99.6072C380.134 99.6072 379.669 99.5885 379.186 99.5512V106.604C379.186 107.611 379.168 108.526 379.13 109.347C379.13 110.13 379.093 110.765 379.019 111.25C379.539 111.212 380.097 111.175 380.692 111.138C381.286 111.1 381.863 111.082 382.42 111.082C383.015 111.045 383.554 111.007 384.037 110.97V114.104H369.373V111.642ZM379.186 96.5846C379.818 96.6592 380.357 96.7152 380.803 96.7525C381.286 96.7525 381.844 96.7525 382.476 96.7525C384.558 96.7525 386.398 96.3607 387.996 95.577C389.595 94.7934 390.84 93.6553 391.732 92.1626C392.624 90.67 393.07 88.8975 393.07 86.8451C393.07 85.0539 392.792 83.5613 392.234 82.3672C391.714 81.1358 390.97 80.1842 390.004 79.5125C389.074 78.8035 387.996 78.2998 386.769 78.0012C385.543 77.7027 384.242 77.5534 382.866 77.5534C381.751 77.5534 380.933 77.7773 380.413 78.2251C379.892 78.6729 379.558 79.3259 379.409 80.1842C379.261 81.0425 379.186 82.1433 379.186 83.4867V96.5846Z" fill="white"/>
<path d="M402.671 111.754C403.787 111.754 404.567 111.492 405.013 110.97C405.459 110.447 405.72 109.72 405.794 108.787C405.905 107.854 405.961 106.772 405.961 105.54V93.8978C405.961 93.3008 405.961 92.6664 405.961 91.9947C405.998 91.2857 406.073 90.5954 406.184 89.9237C405.552 89.961 404.883 89.9983 404.177 90.0356C403.471 90.0356 402.82 90.0543 402.225 90.0916V87.125H404.121C405.682 87.125 406.872 86.9571 407.69 86.6212C408.508 86.2854 409.102 85.9309 409.474 85.5577H411.481C411.556 86.0801 411.612 86.8078 411.649 87.7407C411.686 88.6736 411.723 89.7184 411.76 90.8752C412.466 89.8304 413.284 88.8975 414.214 88.0765C415.143 87.2183 416.147 86.5279 417.225 86.0055C418.34 85.4831 419.492 85.2219 420.682 85.2219C421.834 85.2219 422.819 85.539 423.637 86.1734C424.492 86.7705 424.919 87.7594 424.919 89.14C424.919 89.5132 424.808 89.9423 424.585 90.4274C424.399 90.9125 424.064 91.3417 423.581 91.7148C423.135 92.0507 422.522 92.2186 421.741 92.2186C420.961 92.1813 420.273 91.8828 419.678 91.323C419.12 90.7633 418.86 89.9983 418.897 89.0281C418.005 89.0281 417.113 89.308 416.221 89.8677C415.329 90.3901 414.492 91.0991 413.712 91.9947C412.968 92.8903 412.336 93.8605 411.816 94.9053V107.164C411.816 107.835 411.797 108.526 411.76 109.235C411.76 109.906 411.704 110.597 411.593 111.306C412.188 111.268 412.801 111.25 413.433 111.25C414.065 111.212 414.641 111.175 415.162 111.138V114.104H402.671V111.754Z" fill="white"/>
<path d="M440.553 115C437.914 115 435.535 114.403 433.416 113.209C431.297 112.015 429.606 110.354 428.342 108.227C427.115 106.063 426.502 103.581 426.502 100.783C426.502 97.76 427.115 95.0919 428.342 92.7783C429.606 90.4274 431.297 88.5803 433.416 87.2369C435.535 85.8936 437.896 85.2219 440.498 85.2219C443.137 85.2219 445.516 85.8376 447.635 87.069C449.754 88.2631 451.427 89.9423 452.653 92.1067C453.917 94.2337 454.549 96.6965 454.549 99.4952C454.549 102.443 453.936 105.093 452.709 107.444C451.482 109.794 449.81 111.642 447.691 112.985C445.609 114.328 443.23 115 440.553 115ZM440.944 112.201C442.728 112.164 444.122 111.604 445.126 110.522C446.167 109.44 446.91 108.059 447.356 106.38C447.802 104.663 448.025 102.891 448.025 101.062C448.025 99.4579 447.877 97.8906 447.579 96.3607C447.319 94.7934 446.891 93.3754 446.297 92.1067C445.702 90.8379 444.921 89.8304 443.955 89.0841C442.988 88.3004 441.817 87.9273 440.442 87.9646C438.695 87.9646 437.264 88.5057 436.148 89.5878C435.07 90.67 434.271 92.0693 433.751 93.7859C433.268 95.4651 433.026 97.2563 433.026 99.1594C433.026 101.361 433.305 103.451 433.862 105.428C434.42 107.406 435.275 109.029 436.427 110.298C437.617 111.567 439.122 112.201 440.944 112.201Z" fill="white"/>
<path d="M469.164 115C468.234 115 467.286 114.869 466.32 114.608C465.391 114.384 464.536 113.918 463.755 113.209C462.974 112.463 462.361 111.399 461.915 110.018C461.469 108.638 461.246 106.809 461.246 104.533L461.357 89.252H457.231V86.1174C458.235 86.0801 459.257 85.707 460.298 84.998C461.339 84.289 462.25 83.3374 463.03 82.1433C463.811 80.9492 464.35 79.6618 464.647 78.2811H467.268V86.1174H475.855V89.0281L467.268 89.14L467.156 104.085C467.156 105.503 467.268 106.753 467.491 107.835C467.751 108.88 468.16 109.701 468.718 110.298C469.312 110.858 470.112 111.138 471.115 111.138C471.97 111.138 472.844 110.877 473.736 110.354C474.665 109.832 475.539 108.973 476.357 107.779L478.253 109.459C477.36 110.765 476.468 111.791 475.576 112.537C474.684 113.283 473.829 113.825 473.011 114.16C472.193 114.534 471.45 114.757 470.781 114.832C470.112 114.944 469.573 115 469.164 115Z" fill="white"/>
<path d="M493.836 115C491.197 115 488.818 114.403 486.699 113.209C484.58 112.015 482.889 110.354 481.625 108.227C480.398 106.063 479.785 103.581 479.785 100.783C479.785 97.76 480.398 95.0919 481.625 92.7783C482.889 90.4274 484.58 88.5803 486.699 87.2369C488.818 85.8936 491.179 85.2219 493.781 85.2219C496.42 85.2219 498.799 85.8376 500.918 87.069C503.037 88.2631 504.71 89.9423 505.936 92.1067C507.2 94.2337 507.832 96.6965 507.832 99.4952C507.832 102.443 507.219 105.093 505.992 107.444C504.765 109.794 503.092 111.642 500.974 112.985C498.892 114.328 496.513 115 493.836 115ZM494.227 112.201C496.011 112.164 497.405 111.604 498.409 110.522C499.45 109.44 500.193 108.059 500.639 106.38C501.085 104.663 501.308 102.891 501.308 101.062C501.308 99.4579 501.16 97.8906 500.862 96.3607C500.602 94.7934 500.174 93.3754 499.58 92.1067C498.985 90.8379 498.204 89.8304 497.238 89.0841C496.271 88.3004 495.1 87.9273 493.725 87.9646C491.978 87.9646 490.547 88.5057 489.431 89.5878C488.353 90.67 487.554 92.0693 487.034 93.7859C486.551 95.4651 486.309 97.2563 486.309 99.1594C486.309 101.361 486.588 103.451 487.145 105.428C487.703 107.406 488.558 109.029 489.71 110.298C490.9 111.567 492.405 112.201 494.227 112.201Z" fill="white"/>
<path d="M525.235 115C522.744 115 520.458 114.44 518.376 113.321C516.295 112.164 514.622 110.522 513.358 108.395C512.131 106.268 511.518 103.693 511.518 100.671C511.518 98.6556 511.871 96.7338 512.577 94.9053C513.284 93.0396 514.269 91.379 515.533 89.9237C516.834 88.4684 518.358 87.3302 520.105 86.5093C521.889 85.651 523.859 85.2219 526.015 85.2219C528.209 85.2219 530.086 85.5577 531.647 86.2294C533.208 86.9011 534.398 87.778 535.216 88.8602C536.071 89.9423 536.498 91.1178 536.498 92.3865C536.498 93.2821 536.238 94.0657 535.717 94.7374C535.197 95.4091 534.454 95.745 533.487 95.745C532.409 95.7823 531.647 95.4651 531.201 94.7934C530.755 94.0844 530.532 93.4314 530.532 92.8343C530.532 92.4985 530.588 92.1253 530.699 91.7148C530.811 91.267 531.015 90.8752 531.312 90.5394C531.015 89.7558 530.532 89.1774 529.863 88.8042C529.194 88.431 528.506 88.1885 527.8 88.0765C527.093 87.9646 526.499 87.9086 526.015 87.9086C523.748 87.9459 521.833 88.9348 520.272 90.8752C518.748 92.7783 517.986 95.5397 517.986 99.1594C517.986 101.473 518.321 103.544 518.99 105.372C519.696 107.201 520.718 108.656 522.056 109.738C523.395 110.821 524.993 111.38 526.852 111.418C528.524 111.418 530.142 110.989 531.703 110.13C533.264 109.235 534.528 108.115 535.494 106.772L537.279 108.339C536.201 110.018 534.955 111.343 533.543 112.313C532.167 113.283 530.755 113.974 529.305 114.384C527.893 114.795 526.536 115 525.235 115Z" fill="white"/>
<path d="M554.253 115C551.613 115 549.234 114.403 547.115 113.209C544.997 112.015 543.305 110.354 542.041 108.227C540.815 106.063 540.201 103.581 540.201 100.783C540.201 97.76 540.815 95.0919 542.041 92.7783C543.305 90.4274 544.997 88.5803 547.115 87.2369C549.234 85.8936 551.595 85.2219 554.197 85.2219C556.836 85.2219 559.215 85.8376 561.334 87.069C563.453 88.2631 565.126 89.9423 566.352 92.1067C567.616 94.2337 568.248 96.6965 568.248 99.4952C568.248 102.443 567.635 105.093 566.408 107.444C565.182 109.794 563.509 111.642 561.39 112.985C559.308 114.328 556.929 115 554.253 115ZM554.643 112.201C556.427 112.164 557.821 111.604 558.825 110.522C559.866 109.44 560.609 108.059 561.055 106.38C561.501 104.663 561.724 102.891 561.724 101.062C561.724 99.4579 561.576 97.8906 561.278 96.3607C561.018 94.7934 560.591 93.3754 559.996 92.1067C559.401 90.8379 558.621 89.8304 557.654 89.0841C556.688 88.3004 555.517 87.9273 554.141 87.9646C552.394 87.9646 550.963 88.5057 549.848 89.5878C548.77 90.67 547.97 92.0693 547.45 93.7859C546.967 95.4651 546.725 97.2563 546.725 99.1594C546.725 101.361 547.004 103.451 547.562 105.428C548.119 107.406 548.974 109.029 550.126 110.298C551.316 111.567 552.822 112.201 554.643 112.201Z" fill="white"/>
<path d="M571.489 111.754C572.605 111.754 573.385 111.492 573.831 110.97C574.277 110.447 574.538 109.72 574.612 108.787C574.723 107.854 574.779 106.772 574.779 105.54V80.2402C574.779 79.6058 574.779 78.9714 574.779 78.3371C574.816 77.6654 574.872 76.9564 574.946 76.2101C574.315 76.2474 573.645 76.2847 572.939 76.322C572.233 76.322 571.601 76.3407 571.043 76.378V73.4114C572.716 73.4114 574.036 73.3367 575.002 73.1875C576.006 73.0009 576.768 72.7957 577.288 72.5718C577.846 72.3479 578.255 72.1053 578.515 71.8441H580.634V107.164C580.634 107.835 580.615 108.526 580.578 109.235C580.541 109.906 580.485 110.597 580.411 111.306C581.006 111.268 581.6 111.25 582.195 111.25C582.827 111.212 583.403 111.175 583.924 111.138V114.104H571.489V111.754Z" fill="white"/>
</svg>
